<?xml version="1.0" encoding="utf-8"?>
<!-- Generator: Adobe Illustrator 20.1.0, SVG Export Plug-In . SVG Version: 6.00 Build 0)  -->
<svg version="1.1" id="Layer_1" xmlns="http://www.w3.org/2000/svg" xmlns:xlink="http://www.w3.org/1999/xlink" x="0px" y="0px"
	 viewBox="0 0 40 29" style="enable-background:new 0 0 40 29;" xml:space="preserve">
<style type="text/css">
	.st0{fill:#0F3450;}
</style>
<path class="st0" d="M37.5,17h-35C1.1,17,0,15.9,0,14.5l0,0C0,13.1,1.1,12,2.5,12h35c1.4,0,2.5,1.1,2.5,2.5v0
	C40,15.9,38.9,17,37.5,17z"/>
<path class="st0" d="M37.5,29h-35C1.1,29,0,27.9,0,26.5l0,0C0,25.1,1.1,24,2.5,24h35c1.4,0,2.5,1.1,2.5,2.5v0
	C40,27.9,38.9,29,37.5,29z"/>
<path class="st0" d="M37.5,5h-35C1.1,5,0,3.9,0,2.5l0,0C0,1.1,1.1,0,2.5,0l35,0C38.9,0,40,1.1,40,2.5v0C40,3.9,38.9,5,37.5,5z"/>
</svg>
