<?xml version="1.0" encoding="utf-8"?>
<!-- Generator: Adobe Illustrator 20.1.0, SVG Export Plug-In . SVG Version: 6.00 Build 0)  -->
<svg version="1.1" id="Layer_1" xmlns="http://www.w3.org/2000/svg" xmlns:xlink="http://www.w3.org/1999/xlink" x="0px" y="0px"
	 viewBox="0 0 535.8 261" style="enable-background:new 0 0 535.8 261;" xml:space="preserve">
<style type="text/css">
	.st0{fill:none;stroke:#123450;stroke-linecap:round;stroke-miterlimit:10;}
	.st1{fill:none;}
	.st2{fill:#123450;}
	.st3{font-family:'Break';}
	.st4{font-size:90px;}
</style>
<path class="st0" d="M108.3,114.8c0,0,31.1-16.7,73.9,19.4s119.9,5.4,131.2-2.3c11.3-7.7,53.7-56.4,75.8-60"/>
<path class="st0" d="M108.3,28.6c0,0,60.9,98.7,135.3,89.3s87.9-56.4,106.9-68.5"/>
<path class="st0" d="M189.5,39.5c0,0-101.9,19,2.7,72.2S341.9,82.7,329.3,62S162,21.4,160.6,99.4c-1.4,78,191.2,44.6,189.8-38.8"/>
<path class="st0" d="M465.9,151.3c0,0-12.6-16.8-3.6-22.2c9-5.4,0-13.5-16.2-14c-16.2-0.5-38.3-5-61.8,5.9
	c-23.4,10.8-44.1,11-70.8,10.8"/>
<path class="st0" d="M431.6,171.1c0,0-5.9-17.6-26.6-33.8c-20.7-16.2-20.7-16.2-20.7-16.2s-14.4-16.5-45.5-12.6"/>
<path class="st0" d="M419.5,99.9c0,0-4.8,6.2-24,17.1"/>
<path class="st0" d="M263.9,16.9c0,0,1.8,32.9,49.6,30.2s32,98.3-84.1,83.9c-116.1-14.4-51.2-71.2-23.7-76.7s146.7-3.6,113.2,37.1
	s-80.3,56.3-127.6,40.9S152.1,67.9,208,34.5"/>
<path class="st0" d="M150.3,45.8c0,0-0.9,57.2,93.8,62.7s87.9-58.1,32-59c-55.9-0.9-146.1,20.3-73.5,72.1s129-42.4,142-59.1"/>
<path class="st0" d="M317.1,16.9c0,0,57.7,45.5-22.1,117.7S79.9,68.3,260.7,35.8"/>
<path class="st0" d="M171,52.1c0,0,22.5,8.1,37,43.3s125.8,42.2,133.5-9.3s-210.6-33.4-156.9,27.9s154.7,10.8,180.4-36.3
	c0,0,5.4-20.5,20.3-16.5"/>
<path class="st0" d="M179.6,157.6c0,0,51.4-11.6,92.4-6.2c41,5.3,72.6-24.4,72.6-24.4"/>
<path class="st0" d="M355,77.6c0,0-13.8,81.5-107.2,73.8s-129-74.5-43.8-88.9s138.4,4.9,87.9,46S178.7,68.3,167.4,63.8"/>
<path class="st0" d="M116,57.7c0,0,37,3.3,76.7,33.8s136.2,9.7,123.5-39.4c0,0-4.5-7.2-2.7-14.4c1.8-7.2,2.7-8.6-8.6-15.3
	c-11.3-6.8-1.4-14.9-1.4-14.9"/>
<path class="st0" d="M112.8,88.6c0,0,106,49.3,200.7-15"/>
<path class="st0" d="M145,93.2c0,0,3,0.2,5.3,7.3c2.3,7.1,13.3,18.3,30.5,18"/>
<path class="st0" d="M370.2,134.4c0,0-10-0.1-13.9-4.7c-3.9-4.6,1.3-13.6-17.5-15.5"/>
<path class="st0" d="M179.6,47.3c0,0,2.5,22.6,21.6,37.9c17.2,13.9,48,21.8,102.6,1.8"/>
<path class="st0" d="M201.2,81.5c0,0,14.7,16.5,83.9,8.1"/>
<rect x="4.8" y="168.5" class="st1" width="537" height="106.1"/>
<text transform="matrix(1 0 0 1 4.841 231.4384)" class="st2 st3 st4">nest egg studio</text>
<path class="st0" d="M122.5,148.6c0,0,6.7-27.1,34.4-30.9"/>
<path class="st0" d="M372,102.9c0,0-11.5-5.9-27.8,0"/>
<path class="st0" d="M273.7,107.6c0,0,66.4-34.2,0-55.6S163,72,194.3,98.4"/>
<path class="st0" d="M174.8,147.1"/>
<path class="st0" d="M182.3,149.5c0,0,6.5,3.5,21.6,3.9"/>
<path class="st0" d="M220.1,62.4c0,0-58.6,13.5,25.2,36.7"/>
</svg>
