<?xml version="1.0" encoding="utf-8"?>
<!-- Generator: Adobe Illustrator 22.1.0, SVG Export Plug-In . SVG Version: 6.00 Build 0)  -->
<svg version="1.1" id="Layer_1" xmlns="http://www.w3.org/2000/svg" xmlns:xlink="http://www.w3.org/1999/xlink" x="0px" y="0px"
	 viewBox="0 0 535.8 261" style="enable-background:new 0 0 535.8 261;" xml:space="preserve">
<style type="text/css">
	.st0{fill:none;stroke:#123450;stroke-linecap:round;stroke-miterlimit:10;}
	.st1{fill:#123450;}
</style>
<path class="st0" d="M108.3,114.8c0,0,31.1-16.7,73.9,19.4s119.9,5.4,131.2-2.3c11.3-7.7,53.7-56.4,75.8-60"/>
<path class="st0" d="M108.3,28.6c0,0,60.9,98.7,135.3,89.3s87.9-56.4,106.9-68.5"/>
<path class="st0" d="M189.5,39.5c0,0-101.9,19,2.7,72.2S341.9,82.7,329.3,62S162,21.4,160.6,99.4c-1.4,78,191.2,44.6,189.8-38.8"/>
<path class="st0" d="M465.9,151.3c0,0-12.6-16.8-3.6-22.2c9-5.4,0-13.5-16.2-14c-16.2-0.5-38.3-5-61.8,5.9
	c-23.4,10.8-44.1,11-70.8,10.8"/>
<path class="st0" d="M431.6,171.1c0,0-5.9-17.6-26.6-33.8c-20.7-16.2-20.7-16.2-20.7-16.2s-14.4-16.5-45.5-12.6"/>
<path class="st0" d="M419.5,99.9c0,0-4.8,6.2-24,17.1"/>
<path class="st0" d="M263.9,16.9c0,0,1.8,32.9,49.6,30.2s32,98.3-84.1,83.9c-116.1-14.4-51.2-71.2-23.7-76.7s146.7-3.6,113.2,37.1
	s-80.3,56.3-127.6,40.9S152.1,67.9,208,34.5"/>
<path class="st0" d="M150.3,45.8c0,0-0.9,57.2,93.8,62.7s87.9-58.1,32-59c-55.9-0.9-146.1,20.3-73.5,72.1s129-42.4,142-59.1"/>
<path class="st0" d="M317.1,16.9c0,0,57.7,45.5-22.1,117.7S79.9,68.3,260.7,35.8"/>
<path class="st0" d="M171,52.1c0,0,22.5,8.1,37,43.3s125.8,42.2,133.5-9.3s-210.6-33.4-156.9,27.9s154.7,10.8,180.4-36.3
	c0,0,5.4-20.5,20.3-16.5"/>
<path class="st0" d="M179.6,157.6c0,0,51.4-11.6,92.4-6.2c41,5.3,72.6-24.4,72.6-24.4"/>
<path class="st0" d="M355,77.6c0,0-13.8,81.5-107.2,73.8s-129-74.5-43.8-88.9s138.4,4.9,87.9,46S178.7,68.3,167.4,63.8"/>
<path class="st0" d="M116,57.7c0,0,37,3.3,76.7,33.8s136.2,9.7,123.5-39.4c0,0-4.5-7.2-2.7-14.4c1.8-7.2,2.7-8.6-8.6-15.3
	c-11.3-6.8-1.4-14.9-1.4-14.9"/>
<path class="st0" d="M112.8,88.6c0,0,106,49.3,200.7-15"/>
<path class="st0" d="M145,93.2c0,0,3,0.2,5.3,7.3c2.3,7.1,13.3,18.3,30.5,18"/>
<path class="st0" d="M370.2,134.4c0,0-10-0.1-13.9-4.7c-3.9-4.6,1.3-13.6-17.5-15.5"/>
<path class="st0" d="M179.6,47.3c0,0,2.5,22.6,21.6,37.9c17.2,13.9,48,21.8,102.6,1.8"/>
<path class="st0" d="M201.2,81.5c0,0,14.7,16.5,83.9,8.1"/>
<g>
	<path class="st1" d="M6.5,191.6c0.5,0,0.9,0.2,1.2,0.5c0.3,0.3,0.5,0.7,0.5,1.2v36.6c0,0.5-0.2,0.9-0.5,1.2
		c-0.3,0.3-0.7,0.5-1.2,0.5c-0.5,0-0.9-0.1-1.2-0.5c-0.3-0.3-0.5-0.7-0.5-1.2v-36.6c0-0.5,0.1-0.9,0.5-1.2
		C5.6,191.7,6,191.6,6.5,191.6z M20.9,191.5c2.2,0,4.3,0.4,6.3,1.3c1.9,0.8,3.6,2,5.1,3.4c1.4,1.4,2.6,3.1,3.4,5.1
		c0.8,1.9,1.3,4,1.3,6.3v22.2c0,0.5-0.2,0.9-0.5,1.2c-0.3,0.3-0.7,0.5-1.2,0.5c-0.4,0-0.8-0.1-1.1-0.5c-0.3-0.3-0.5-0.7-0.5-1.2
		v-22.2c0-1.7-0.3-3.4-1-4.9c-0.7-1.6-1.6-2.9-2.7-4.1s-2.5-2.1-4.1-2.7c-1.6-0.7-3.2-1-5-1c-1.3,0-2.5,0.2-3.8,0.5
		c-0.4,0.1-0.8,0.1-1.2-0.1c-0.4-0.2-0.6-0.5-0.8-1c-0.1-0.4-0.1-0.8,0.1-1.2c0.2-0.4,0.5-0.6,0.9-0.8
		C17.8,191.7,19.4,191.5,20.9,191.5z"/>
	<path class="st1" d="M65.6,191.5c2.5,0,4.8,0.4,7,1.3c2.2,0.8,4.2,2,5.9,3.5c1.7,1.5,3.2,3.2,4.4,5.3s2,4.3,2.3,6.7
		c0.1,0.5,0,0.9-0.2,1.2c-0.3,0.3-0.6,0.6-1.1,0.7h-0.2h-0.2H57.3c-0.5,0-0.9-0.1-1.2-0.5c-0.3-0.3-0.5-0.7-0.5-1.2
		c0-0.5,0.1-0.9,0.5-1.2c0.3-0.3,0.7-0.4,1.2-0.4h24.4c-0.5-1.8-1.2-3.4-2.3-4.9c-1-1.5-2.2-2.7-3.6-3.8c-1.4-1.1-3-1.9-4.7-2.5
		s-3.6-0.9-5.5-0.9c-2.9,0-5.6,0.7-8.1,2c-2.5,1.3-4.5,3.3-6.1,5.7c-1.3,1.9-2.1,4-2.4,6.3c-0.1,0.5-0.1,0.9-0.1,1.4
		c0,0.4,0,0.9,0,1.4c0,2.3,0.4,4.5,1.3,6.5c0.9,2,2.1,3.8,3.6,5.3c1.5,1.5,3.3,2.7,5.3,3.6c2,0.9,4.2,1.3,6.5,1.3
		c2.7,0,5.2-0.6,7.5-1.7c2.3-1.1,4.2-2.8,5.8-4.9c0.7-0.9,1.4-2,2-3.2c0.4-1,1.1-1.2,2.1-0.8c0.4,0.2,0.7,0.5,0.9,0.9
		c0.1,0.4,0.1,0.8,0,1.3c-0.7,1.4-1.4,2.7-2.3,3.8c-1.9,2.5-4.3,4.5-7,5.8c-2.8,1.4-5.7,2.1-8.9,2.1c-2.8,0-5.4-0.5-7.8-1.6
		c-2.4-1-4.5-2.5-6.3-4.3c-1.8-1.8-3.2-3.9-4.3-6.3c-1.1-2.4-1.6-5-1.6-7.8c0-1.1,0.1-2.2,0.3-3.2c0.2-1.4,0.6-2.7,1-3.9
		c0.5-1.2,1.1-2.4,1.8-3.6c1.9-2.9,4.3-5.2,7.2-6.8C59,192.3,62.2,191.5,65.6,191.5z"/>
	<path class="st1" d="M97.9,210.9c0.4,0.3,0.6,0.7,0.7,1.1c0.1,0.4,0,0.8-0.2,1.2c-1.1,1.6-1.6,3.4-1.6,5.4c0,1,0.1,1.9,0.4,2.6
		c0.2,1-0.2,1.7-1.2,2c-0.1,0.1-0.2,0.1-0.4,0.1c-0.7,0-1.2-0.4-1.5-1.2c-0.1-0.4-0.2-0.8-0.3-1.2c-0.1-0.4-0.1-0.7-0.1-1.2
		l-0.1-0.1v-1.1c0-2.6,0.7-5,2.2-7.2C96.3,210.5,97.1,210.4,97.9,210.9z M114.3,208.4c1.6,1.2,2.8,2.7,3.6,4.5
		c0.9,1.8,1.3,3.7,1.3,5.7c0,1.8-0.3,3.5-1,5c-0.7,1.6-1.6,2.9-2.7,4.1s-2.5,2.1-4.1,2.7c-1.6,0.7-3.2,1-5,1c-2.6,0-5.1-0.8-7.3-2.3
		c-0.8-0.7-1-1.4-0.5-2.3c0.7-0.8,1.4-1,2.3-0.5c1.6,1.1,3.4,1.7,5.5,1.7c1.3,0,2.6-0.3,3.7-0.8c1.2-0.5,2.2-1.2,3.1-2.1
		c0.9-0.9,1.6-1.9,2.1-3.1c0.5-1.2,0.8-2.4,0.8-3.7c0-3.1-1.3-5.7-3.8-7.7c-1.7-1.4-3.7-2.1-5.9-2.1c-2.4,0-4.4-0.8-6.1-2.5
		c-1.7-1.7-2.5-3.7-2.5-6.1c0-2.5,0.8-4.5,2.5-6.2c1.7-1.7,3.7-2.5,6.1-2.5c1.2,0,2.3,0.2,3.4,0.7c1,0.5,2,1.1,2.8,1.8
		c0.8,0.8,1.4,1.7,1.9,2.8c0.5,1.1,0.7,2.2,0.7,3.4c0,0.5-0.2,0.9-0.5,1.2c-0.3,0.3-0.7,0.4-1.2,0.4c-0.5,0-0.9-0.1-1.2-0.4
		c-0.3-0.3-0.5-0.7-0.5-1.2c0-1.6-0.5-2.9-1.6-3.9c-1.1-1-2.4-1.6-3.9-1.6c-1.5,0-2.8,0.5-3.9,1.6c-1.1,1.1-1.6,2.4-1.6,3.9
		c0,1.5,0.5,2.8,1.6,3.9s2.4,1.6,3.9,1.6h0.1C109.4,205.7,111.9,206.6,114.3,208.4z"/>
	<path class="st1" d="M144,197.9c0.5,0,0.9,0.2,1.2,0.4c0.3,0.3,0.5,0.7,0.5,1.2c0,0.5-0.2,0.9-0.5,1.1c-0.3,0.3-0.7,0.4-1.2,0.4
		h-14.2c-0.5,0-0.9-0.1-1.2-0.4c-0.3-0.3-0.5-0.6-0.5-1.1c0-0.5,0.1-0.9,0.5-1.2c0.3-0.3,0.7-0.4,1.2-0.4h3.1v-17.6
		c0-0.5,0.1-0.9,0.5-1.2c0.3-0.3,0.7-0.5,1.2-0.5c0.4,0,0.8,0.2,1.1,0.5c0.3,0.3,0.5,0.7,0.5,1.2v17.6H144z M141,228.3
		c0.4,0,0.8,0.2,1.1,0.5c0.3,0.3,0.5,0.7,0.5,1.1c0,0.5-0.2,0.9-0.5,1.2c-0.3,0.3-0.7,0.5-1.1,0.5c-2.2,0-4.1-0.8-5.7-2.3
		c-1.6-1.5-2.4-3.4-2.4-5.6v-0.1V209c0-0.5,0.1-0.9,0.5-1.2c0.3-0.3,0.7-0.5,1.2-0.5c0.4,0,0.8,0.2,1.1,0.5c0.3,0.3,0.5,0.7,0.5,1.2
		v14.3c0,1.4,0.5,2.6,1.4,3.5C138.5,227.8,139.6,228.3,141,228.3z"/>
	<path class="st1" d="M188.7,191.5c2.5,0,4.8,0.4,7,1.3c2.2,0.8,4.2,2,5.9,3.5c1.7,1.5,3.2,3.2,4.4,5.3s2,4.3,2.3,6.7
		c0.1,0.5,0,0.9-0.2,1.2c-0.3,0.3-0.6,0.6-1.1,0.7h-0.2h-0.2h-26.3c-0.5,0-0.9-0.1-1.2-0.5c-0.3-0.3-0.5-0.7-0.5-1.2
		c0-0.5,0.1-0.9,0.5-1.2c0.3-0.3,0.7-0.4,1.2-0.4h24.4c-0.5-1.8-1.2-3.4-2.3-4.9c-1-1.5-2.2-2.7-3.6-3.8c-1.4-1.1-3-1.9-4.7-2.5
		s-3.6-0.9-5.5-0.9c-2.9,0-5.6,0.7-8.1,2c-2.5,1.3-4.5,3.3-6.1,5.7c-1.3,1.9-2.1,4-2.4,6.3c-0.1,0.5-0.1,0.9-0.1,1.4
		c0,0.4,0,0.9,0,1.4c0,2.3,0.4,4.5,1.3,6.5c0.9,2,2.1,3.8,3.6,5.3c1.5,1.5,3.3,2.7,5.3,3.6c2,0.9,4.2,1.3,6.5,1.3
		c2.7,0,5.2-0.6,7.5-1.7c2.3-1.1,4.2-2.8,5.8-4.9c0.7-0.9,1.4-2,2-3.2c0.4-1,1.1-1.2,2.1-0.8c0.4,0.2,0.7,0.5,0.9,0.9
		c0.1,0.4,0.1,0.8,0,1.3c-0.7,1.4-1.4,2.7-2.3,3.8c-1.9,2.5-4.3,4.5-7,5.8c-2.8,1.4-5.7,2.1-8.9,2.1c-2.8,0-5.4-0.5-7.8-1.6
		c-2.4-1-4.5-2.5-6.3-4.3c-1.8-1.8-3.2-3.9-4.3-6.3c-1.1-2.4-1.6-5-1.6-7.8c0-1.1,0.1-2.2,0.3-3.2c0.2-1.4,0.6-2.7,1-3.9
		c0.5-1.2,1.1-2.4,1.8-3.6c1.9-2.9,4.3-5.2,7.2-6.8C182.1,192.3,185.3,191.5,188.7,191.5z"/>
	<path class="st1" d="M254.9,191.6c0.5,0,0.9,0.2,1.2,0.5c0.3,0.3,0.5,0.7,0.5,1.2v45.5c0,2.8-0.5,5.4-1.6,7.8
		c-1,2.4-2.5,4.5-4.3,6.3c-1.8,1.8-4,3.2-6.4,4.3c-2.4,1-5,1.6-7.8,1.6c-2.8,0-5.4-0.5-7.8-1.6c-2.4-1.1-4.5-2.5-6.3-4.3
		c-1.8-1.8-3.2-3.9-4.3-6.3c-1.1-2.4-1.6-5-1.6-7.8c0-1.7,0.2-3.4,0.6-5c0.1-0.4,0.4-0.7,0.7-0.9c0.4-0.2,0.8-0.3,1.3-0.1
		c0.4,0.1,0.7,0.4,0.9,0.7c0.2,0.4,0.3,0.8,0.1,1.3c-0.1,0.7-0.2,1.3-0.3,2c-0.1,0.7-0.1,1.4-0.1,2.1c0,2.3,0.4,4.5,1.3,6.5
		c0.9,2,2.1,3.8,3.6,5.3c1.5,1.5,3.3,2.7,5.3,3.6c2,0.9,4.2,1.3,6.5,1.3c2.3,0,4.5-0.4,6.6-1.3c2-0.9,3.8-2.1,5.4-3.6
		c1.5-1.5,2.7-3.3,3.6-5.3c0.9-2,1.3-4.2,1.3-6.5v-27.1c0-2.3-0.4-4.5-1.3-6.6c-0.9-2-2.1-3.8-3.6-5.4c-1.5-1.5-3.3-2.7-5.4-3.6
		c-2-0.9-4.2-1.3-6.6-1.3c-2.3,0-4.5,0.4-6.5,1.3c-2,0.9-3.8,2.1-5.3,3.6c-1.5,1.5-2.7,3.3-3.6,5.4c-0.9,2-1.3,4.2-1.3,6.6
		s0.4,4.5,1.3,6.5c0.9,2,2.1,3.8,3.6,5.3c1.5,1.5,3.3,2.7,5.3,3.6c2,0.9,4.2,1.3,6.5,1.3c3.1,0,6-0.8,8.6-2.4
		c0.4-0.2,0.8-0.3,1.3-0.2c0.4,0.1,0.8,0.4,1,0.7c0.2,0.4,0.3,0.8,0.2,1.3c-0.1,0.4-0.4,0.8-0.7,1c-3.1,1.9-6.6,2.9-10.3,2.9
		c-2.8,0-5.4-0.5-7.8-1.6c-2.4-1-4.5-2.5-6.3-4.3c-1.8-1.8-3.2-3.9-4.3-6.3c-1.1-2.4-1.6-5-1.6-7.8s0.5-5.4,1.6-7.8
		c1-2.4,2.5-4.6,4.3-6.4c1.8-1.8,3.9-3.3,6.3-4.3c2.4-1,5-1.6,7.8-1.6c3.6,0,6.9,0.8,9.8,2.5c2.9,1.7,5.3,3.9,7.1,6.7v-7.5
		c0-0.5,0.1-0.9,0.5-1.2C254.2,191.7,254.5,191.6,254.9,191.6z"/>
	<path class="st1" d="M303,191.6c0.5,0,0.9,0.2,1.2,0.5c0.3,0.3,0.5,0.7,0.5,1.2v45.5c0,2.8-0.5,5.4-1.6,7.8c-1,2.4-2.5,4.5-4.3,6.3
		c-1.8,1.8-4,3.2-6.4,4.3c-2.4,1-5,1.6-7.8,1.6c-2.8,0-5.4-0.5-7.8-1.6c-2.4-1.1-4.5-2.5-6.3-4.3c-1.8-1.8-3.2-3.9-4.3-6.3
		c-1.1-2.4-1.6-5-1.6-7.8c0-1.7,0.2-3.4,0.6-5c0.1-0.4,0.4-0.7,0.7-0.9c0.4-0.2,0.8-0.3,1.3-0.1c0.4,0.1,0.7,0.4,0.9,0.7
		c0.2,0.4,0.3,0.8,0.1,1.3c-0.1,0.7-0.2,1.3-0.3,2c-0.1,0.7-0.1,1.4-0.1,2.1c0,2.3,0.4,4.5,1.3,6.5c0.9,2,2.1,3.8,3.6,5.3
		c1.5,1.5,3.3,2.7,5.3,3.6c2,0.9,4.2,1.3,6.5,1.3c2.3,0,4.5-0.4,6.6-1.3c2-0.9,3.8-2.1,5.4-3.6c1.5-1.5,2.7-3.3,3.6-5.3
		c0.9-2,1.3-4.2,1.3-6.5v-27.1c0-2.3-0.4-4.5-1.3-6.6c-0.9-2-2.1-3.8-3.6-5.4c-1.5-1.5-3.3-2.7-5.4-3.6c-2-0.9-4.2-1.3-6.6-1.3
		c-2.3,0-4.5,0.4-6.5,1.3c-2,0.9-3.8,2.1-5.3,3.6c-1.5,1.5-2.7,3.3-3.6,5.4c-0.9,2-1.3,4.2-1.3,6.6s0.4,4.5,1.3,6.5
		c0.9,2,2.1,3.8,3.6,5.3c1.5,1.5,3.3,2.7,5.3,3.6c2,0.9,4.2,1.3,6.5,1.3c3.1,0,6-0.8,8.6-2.4c0.4-0.2,0.8-0.3,1.3-0.2
		c0.4,0.1,0.8,0.4,1,0.7c0.2,0.4,0.3,0.8,0.2,1.3c-0.1,0.4-0.4,0.8-0.7,1c-3.1,1.9-6.6,2.9-10.3,2.9c-2.8,0-5.4-0.5-7.8-1.6
		c-2.4-1-4.5-2.5-6.3-4.3c-1.8-1.8-3.2-3.9-4.3-6.3c-1.1-2.4-1.6-5-1.6-7.8s0.5-5.4,1.6-7.8c1-2.4,2.5-4.6,4.3-6.4
		c1.8-1.8,3.9-3.3,6.3-4.3c2.4-1,5-1.6,7.8-1.6c3.6,0,6.9,0.8,9.8,2.5c2.9,1.7,5.3,3.9,7.1,6.7v-7.5c0-0.5,0.1-0.9,0.5-1.2
		C302.2,191.7,302.6,191.6,303,191.6z"/>
	<path class="st1" d="M330.6,210.9c0.4,0.3,0.6,0.7,0.7,1.1c0.1,0.4,0,0.8-0.2,1.2c-1.1,1.6-1.6,3.4-1.6,5.4c0,1,0.1,1.9,0.4,2.6
		c0.2,1-0.2,1.7-1.2,2c-0.1,0.1-0.2,0.1-0.4,0.1c-0.7,0-1.2-0.4-1.5-1.2c-0.1-0.4-0.2-0.8-0.3-1.2c-0.1-0.4-0.1-0.7-0.1-1.2
		l-0.1-0.1v-1.1c0-2.6,0.7-5,2.2-7.2C329,210.5,329.8,210.4,330.6,210.9z M347,208.4c1.6,1.2,2.8,2.7,3.6,4.5
		c0.9,1.8,1.3,3.7,1.3,5.7c0,1.8-0.3,3.5-1,5c-0.7,1.6-1.6,2.9-2.7,4.1s-2.5,2.1-4.1,2.7c-1.6,0.7-3.2,1-5,1c-2.6,0-5.1-0.8-7.3-2.3
		c-0.8-0.7-1-1.4-0.5-2.3c0.7-0.8,1.4-1,2.3-0.5c1.6,1.1,3.4,1.7,5.5,1.7c1.3,0,2.6-0.3,3.7-0.8c1.2-0.5,2.2-1.2,3.1-2.1
		c0.9-0.9,1.6-1.9,2.1-3.1c0.5-1.2,0.8-2.4,0.8-3.7c0-3.1-1.3-5.7-3.8-7.7c-1.7-1.4-3.7-2.1-5.9-2.1c-2.4,0-4.4-0.8-6.1-2.5
		c-1.7-1.7-2.5-3.7-2.5-6.1c0-2.5,0.8-4.5,2.5-6.2c1.7-1.7,3.7-2.5,6.1-2.5c1.2,0,2.3,0.2,3.4,0.7c1,0.5,2,1.1,2.8,1.8
		c0.8,0.8,1.4,1.7,1.9,2.8c0.5,1.1,0.7,2.2,0.7,3.4c0,0.5-0.2,0.9-0.5,1.2c-0.3,0.3-0.7,0.4-1.2,0.4c-0.5,0-0.9-0.1-1.2-0.4
		c-0.3-0.3-0.5-0.7-0.5-1.2c0-1.6-0.5-2.9-1.6-3.9c-1.1-1-2.4-1.6-3.9-1.6c-1.5,0-2.8,0.5-3.9,1.6c-1.1,1.1-1.6,2.4-1.6,3.9
		c0,1.5,0.5,2.8,1.6,3.9s2.4,1.6,3.9,1.6h0.1C342.1,205.7,344.7,206.6,347,208.4z"/>
	<path class="st1" d="M376.7,197.9c0.5,0,0.9,0.2,1.2,0.4c0.3,0.3,0.5,0.7,0.5,1.2c0,0.5-0.2,0.9-0.5,1.1c-0.3,0.3-0.7,0.4-1.2,0.4
		h-14.2c-0.5,0-0.9-0.1-1.2-0.4c-0.3-0.3-0.5-0.6-0.5-1.1c0-0.5,0.1-0.9,0.5-1.2c0.3-0.3,0.7-0.4,1.2-0.4h3.1v-17.6
		c0-0.5,0.1-0.9,0.5-1.2c0.3-0.3,0.7-0.5,1.2-0.5c0.4,0,0.8,0.2,1.1,0.5c0.3,0.3,0.5,0.7,0.5,1.2v17.6H376.7z M373.7,228.3
		c0.4,0,0.8,0.2,1.1,0.5c0.3,0.3,0.5,0.7,0.5,1.1c0,0.5-0.2,0.9-0.5,1.2c-0.3,0.3-0.7,0.5-1.1,0.5c-2.2,0-4.1-0.8-5.7-2.3
		c-1.6-1.5-2.4-3.4-2.4-5.6v-0.1V209c0-0.5,0.1-0.9,0.5-1.2c0.3-0.3,0.7-0.5,1.2-0.5c0.4,0,0.8,0.2,1.1,0.5c0.3,0.3,0.5,0.7,0.5,1.2
		v14.3c0,1.4,0.5,2.6,1.4,3.5C371.2,227.8,372.4,228.3,373.7,228.3z"/>
	<path class="st1" d="M409.3,227.1c1-0.4,1.6-0.2,2.1,0.8c0.4,1,0.1,1.7-0.8,2.1c-2,1-4.2,1.4-6.6,1.4c-2.2,0-4.3-0.4-6.3-1.3
		c-2-0.8-3.6-2-5.1-3.4c-1.4-1.4-2.6-3.1-3.4-5.1c-0.8-1.9-1.3-4-1.3-6.3v-22.2c0-0.5,0.1-0.9,0.5-1.2c0.3-0.3,0.7-0.5,1.2-0.5
		c0.5,0,0.9,0.2,1.2,0.5c0.3,0.3,0.5,0.7,0.5,1.2v22.2c0,1.7,0.3,3.4,1,5c0.7,1.6,1.6,2.9,2.7,4.1s2.5,2.1,4.1,2.7
		c1.6,0.7,3.2,1,4.9,1C405.8,228.2,407.6,227.8,409.3,227.1z M418.4,191.5c0.5,0,0.9,0.2,1.2,0.5c0.3,0.3,0.5,0.7,0.5,1.2v36.6
		c0,0.5-0.2,0.9-0.5,1.2c-0.3,0.3-0.7,0.5-1.2,0.5c-0.4,0-0.8-0.1-1.1-0.5c-0.3-0.3-0.5-0.7-0.5-1.2v-36.6c0-0.5,0.1-0.9,0.5-1.2
		C417.6,191.6,418,191.5,418.4,191.5z"/>
	<path class="st1" d="M467.8,168.5c0.5,0,0.9,0.1,1.2,0.4c0.3,0.3,0.5,0.6,0.5,1v59.8c0,0.5-0.2,0.9-0.5,1.2
		c-0.3,0.3-0.7,0.5-1.2,0.5c-0.5,0-0.9-0.1-1.1-0.5c-0.3-0.3-0.4-0.7-0.4-1.2v-18.3c0-2.3-0.4-4.5-1.3-6.6c-0.9-2-2.1-3.8-3.6-5.4
		c-1.5-1.5-3.3-2.7-5.4-3.6c-2-0.9-4.2-1.3-6.6-1.3c-2.3,0-4.4,0.4-6.4,1.3c-2,0.9-3.8,2.1-5.3,3.6c-1.5,1.5-2.7,3.3-3.6,5.4
		c-0.9,2-1.3,4.2-1.3,6.6c0,2.3,0.4,4.4,1.3,6.4c0.9,2,2.1,3.8,3.6,5.3c1.5,1.5,3.3,2.7,5.3,3.6c2,0.9,4.2,1.3,6.4,1.3
		c3.2,0,6.1-0.8,8.7-2.4c0.4-0.2,0.8-0.3,1.2-0.2c0.5,0.1,0.8,0.4,1.1,0.7c0.4,1,0.2,1.7-0.7,2.3c-3.1,1.9-6.6,2.9-10.4,2.9
		c-2.8,0-5.3-0.5-7.7-1.6c-2.4-1-4.5-2.5-6.3-4.3c-1.8-1.8-3.2-3.9-4.3-6.3c-1.1-2.4-1.6-5-1.6-7.7s0.5-5.4,1.6-7.8
		c1-2.5,2.5-4.6,4.3-6.4c1.8-1.8,3.9-3.2,6.3-4.3c2.4-1,5-1.6,7.7-1.6c3.6,0,6.9,0.8,9.8,2.5c2.9,1.7,5.3,3.8,7.2,6.5V170
		C466.3,169,466.8,168.5,467.8,168.5z"/>
	<path class="st1" d="M480.4,180.8c0.8,0,1.6,0.3,2.2,0.9c0.6,0.6,0.9,1.4,0.9,2.3c0,0.8-0.3,1.6-0.9,2.2c-0.6,0.6-1.4,0.9-2.2,0.9
		c-0.9,0-1.7-0.3-2.3-0.9c-0.6-0.6-0.9-1.4-0.9-2.2c0-0.9,0.3-1.7,0.9-2.3C478.7,181.1,479.5,180.8,480.4,180.8z M480.4,192.2
		c0.4,0,0.8,0.2,1.1,0.5c0.3,0.3,0.4,0.7,0.4,1.2v21.3c0,0.5-0.2,0.9-0.4,1.1c-0.3,0.3-0.7,0.4-1.1,0.4c-0.5,0-0.9-0.1-1.2-0.4
		c-0.3-0.3-0.5-0.6-0.5-1.1v-21.3c0-0.5,0.1-0.9,0.5-1.2C479.5,192.3,479.9,192.2,480.4,192.2z M480.4,224.2c0.4,0,0.8,0.2,1.1,0.5
		c0.3,0.3,0.4,0.7,0.4,1.2v4c0,0.5-0.2,0.9-0.4,1.2c-0.3,0.3-0.7,0.5-1.1,0.5c-0.5,0-0.9-0.1-1.2-0.5c-0.3-0.3-0.5-0.7-0.5-1.2v-4
		c0-0.5,0.1-0.9,0.5-1.2C479.5,224.4,479.9,224.2,480.4,224.2z"/>
	<path class="st1" d="M512.9,231.4c-2.8,0-5.4-0.5-7.8-1.6c-2.4-1-4.5-2.5-6.3-4.3c-1.8-1.8-3.2-3.9-4.3-6.3c-1.1-2.4-1.6-5-1.6-7.8
		c0-3.4,0.8-6.6,2.5-9.6c0.2-0.4,0.5-0.7,0.9-0.8c0.4-0.1,0.8-0.1,1.3,0.2c0.4,0.2,0.7,0.5,0.8,0.9c0.1,0.4,0.1,0.8-0.2,1.3
		c-1.4,2.5-2.1,5.2-2.1,8.1c0,2.3,0.4,4.5,1.3,6.5c0.9,2,2.1,3.8,3.6,5.3c1.5,1.5,3.3,2.7,5.3,3.6c2,0.9,4.2,1.3,6.5,1.3
		c2.3,0,4.5-0.4,6.5-1.3c2-0.9,3.8-2.1,5.3-3.6c1.5-1.5,2.7-3.3,3.6-5.3c0.9-2,1.3-4.2,1.3-6.5s-0.4-4.5-1.3-6.5
		c-0.9-2-2.1-3.8-3.6-5.3c-1.5-1.5-3.3-2.7-5.3-3.6c-2-0.9-4.2-1.3-6.5-1.3c-2.9,0-5.6,0.7-8.1,2.1c-0.4,0.2-0.8,0.3-1.3,0.2
		c-0.4-0.1-0.8-0.4-1-0.8c-0.2-0.4-0.2-0.7-0.1-1.2c0.1-0.4,0.4-0.8,0.7-1c3.1-1.7,6.3-2.5,9.7-2.5c2.8,0,5.4,0.5,7.8,1.6
		c2.4,1,4.5,2.5,6.3,4.3c1.8,1.8,3.2,3.9,4.3,6.3c1,2.4,1.6,5,1.6,7.8s-0.5,5.4-1.6,7.8c-1,2.4-2.5,4.5-4.3,6.3
		c-1.8,1.8-3.9,3.2-6.3,4.3C518.2,230.9,515.6,231.4,512.9,231.4z"/>
</g>
<path class="st0" d="M122.5,148.6c0,0,6.7-27.1,34.4-30.9"/>
<path class="st0" d="M372,102.9c0,0-11.5-5.9-27.8,0"/>
<path class="st0" d="M273.7,107.6c0,0,66.4-34.2,0-55.6S163,72,194.3,98.4"/>
<path class="st0" d="M174.8,147.1"/>
<path class="st0" d="M182.3,149.5c0,0,6.5,3.5,21.6,3.9"/>
<path class="st0" d="M220.1,62.4c0,0-58.6,13.5,25.2,36.7"/>
</svg>
